<?xml version="1.0" encoding="UTF-8"?>
<svg viewBox="0 0 533.33 533.33" xmlns="http://www.w3.org/2000/svg">
 <g fill-rule="evenodd">
  <g fill="none">
   <path transform="rotate(46.028 274.13 262.13)" d="m495.3 262.13c0-125.23-99.023-226.74-221.17-226.74s-221.17 101.52-221.17 226.74c4.6e-5 125.23 99.023 226.74 221.17 226.74 122.15-3.1e-5 221.17-101.52 221.17-226.74l-221.17 2e-4h221.17z" stroke="#bf0000" stroke-width="37.117"/>
   <path d="m445.61 251.24c0.032166-115.39-93.835-208.96-209.64-208.96s-209.67 93.563-209.64 208.96c-9.2e-5 115.37 93.858 208.9 209.64 208.9 115.78 9.2e-5 209.64-93.527 209.64-208.9l-209.64-4e-4h209.64z" stroke-width="1.25"/>
  </g>
  <path d="m117.57 339.14c0-1.818-11.813-66.341 0-91.787 21.811-39.078 31.807-74.519 33.625-104.51 0.909 0.909 1.818 48.165-1.818 53.618-10.905 20.902-21.81 44.531-29.08 67.25 0 44.53-1.818 79.064-2.727 75.429z" fill="#fff" fill-opacity=".578" stroke-width="1.25"/>
  <path d="m112.2 91.06l292.31 307.07" fill="none" stroke="#bf0000" stroke-width="37.5"/>
 </g>
</svg>
